<?xml version="1.0" encoding="iso-8859-1"?>
<!-- Generator: Adobe Illustrator 16.0.0, SVG Export Plug-In . SVG Version: 6.00 Build 0)  -->
<!DOCTYPE svg PUBLIC "-//W3C//DTD SVG 1.1//EN" "http://www.w3.org/Graphics/SVG/1.1/DTD/svg11.dtd">
<svg xmlns="http://www.w3.org/2000/svg" xmlns:xlink="http://www.w3.org/1999/xlink" version="1.1" id="Capa_1" x="0px" y="0px" width="512px" height="512px" viewBox="0 0 41.561 41.561" style="enable-background:new 0 0 41.561 41.561;" xml:space="preserve">
<g>
	<g>
		<path d="M29.785,14.041L18.197,25.628c-0.847,0.848-0.847,2.224,0.002,3.069c0.088,0.089,0.184,0.161,0.282,0.23    c-0.229,0.075-0.452,0.131-0.666,0.136l-4.782,0.872c0.11-0.188,0.188-0.393,0.188-0.626c0-2.472-2.82-1.229-2.82-2.821    c0-1.595-1.945-1.944-1.945-1.944L8.04,24.501l0.73-4.12l0.01-0.105c0.008-0.259,0.08-0.554,0.205-0.858    c0.08,0.125,0.174,0.24,0.281,0.351c0.85,0.85,2.225,0.85,3.07,0.002L23.924,8.183c0.85-0.85,0.85-2.224,0-3.071    c-0.848-0.847-2.223-0.848-3.07,0L9.266,16.702c-0.006,0.006-0.012,0.014-0.018,0.02c-0.076,0.034-0.148,0.078-0.211,0.143    c-0.779,0.778-1.621,2.056-1.677,3.325L5.543,30.473L5.53,30.596c0,0.5,0.203,0.953,0.533,1.282    c0.328,0.328,0.781,0.531,1.279,0.531l10.563-1.923c1.066-0.045,2.191-0.604,3.17-1.582c0.029-0.029,0.043-0.066,0.066-0.102    c0.039-0.035,0.084-0.062,0.121-0.102l11.589-11.587c0.851-0.851,0.849-2.225-0.002-3.072    C32.01,13.191,30.635,13.189,29.785,14.041z" fill="#b58fb5"/>
		<path d="M13.74,24.239c0.848,0.849,2.223,0.849,3.067,0.001l11.59-11.588c0.849-0.85,0.849-2.223,0-3.07    c-0.851-0.849-2.224-0.85-3.071,0L13.738,21.169C12.893,22.016,12.893,23.391,13.74,24.239z" fill="#b58fb5"/>
		<path d="M36.549,6.736l-5.352-5.351c-1.846-1.847-4.848-1.847-6.691,0L23.901,1.99c-0.276,0.276-0.276,0.727,0,1.003l11.04,11.041    c0.274,0.275,0.728,0.275,1.005,0l0.604-0.604C38.395,11.584,38.393,8.583,36.549,6.736z" fill="#b58fb5"/>
		<path d="M18.551,40.633c-0.566,0.054-1.133,0.052-1.682,0.004s-1.076-0.171-1.576-0.348c-0.242-0.116-0.496-0.188-0.721-0.332    c-0.229-0.139-0.463-0.25-0.668-0.423c-0.435-0.306-0.826-0.671-1.191-1.069c-0.178-0.209-0.371-0.39-0.533-0.616l-0.498-0.656    c-0.202-0.268-0.557-0.401-0.899-0.313l-0.096,0.022c-0.689,0.177-1.386,0.313-2.06,0.387c-0.336,0.033-0.666,0.052-0.977,0.045    c-0.313-0.008-0.598-0.05-0.834-0.108c-0.104-0.039-0.201-0.078-0.277-0.116c-0.037-0.054-0.129-0.07-0.115-0.114    C6.42,36.975,6.406,36.973,6.4,36.96c0.008-0.021,0.01-0.037,0.006-0.048c-0.027,0.003,0.014-0.104-0.01-0.142    c-0.011-0.06,0.024-0.186,0.022-0.27c-0.002-0.093,0.057-0.205,0.072-0.304l0.035-0.163l0.098-0.264l0.191-0.523    c0.021-0.06,0.043-0.126,0.057-0.188c0.182-0.811-0.328-1.613-1.137-1.797C4.921,33.08,4.119,33.588,3.936,34.4l-0.004,0.016    L3.809,34.96l-0.061,0.271l-0.056,0.39c-0.024,0.27-0.077,0.521-0.061,0.8c0.025,0.285,0.02,0.539,0.096,0.843    c0.104,0.312,0.144,0.604,0.354,0.903c0.092,0.146,0.19,0.293,0.293,0.431c0.114,0.125,0.25,0.235,0.381,0.346    c0.264,0.243,0.545,0.332,0.826,0.47c0.268,0.091,0.534,0.146,0.791,0.19c1,0.116,1.83-0.039,2.625-0.222    c0.604-0.146,1.176-0.337,1.735-0.545l0.179,0.181c0.211,0.227,0.469,0.416,0.7,0.623c0.479,0.4,1,0.772,1.566,1.069    c0.271,0.168,0.578,0.275,0.873,0.399c0.289,0.136,0.613,0.188,0.916,0.282c0.623,0.134,1.256,0.19,1.873,0.163    c0.617-0.025,1.221-0.104,1.805-0.239c0.588-0.117,1.156-0.28,1.719-0.457c1.125-0.351,2.224-0.751,3.323-1.141    c-1.143,0.242-2.285,0.497-3.43,0.693C19.692,40.509,19.119,40.594,18.551,40.633z" fill="#b58fb5"/>
	</g>
</g>
<g>
</g>
<g>
</g>
<g>
</g>
<g>
</g>
<g>
</g>
<g>
</g>
<g>
</g>
<g>
</g>
<g>
</g>
<g>
</g>
<g>
</g>
<g>
</g>
<g>
</g>
<g>
</g>
<g>
</g>
</svg>
